<?xml version="1.0" encoding="UTF-8"?>
<svg width="380px" height="211px" viewBox="0 0 380 211" version="1.1" xmlns="http://www.w3.org/2000/svg" xmlns:xlink="http://www.w3.org/1999/xlink">
    <title>noun-sun-4111188</title>
    <g id="Page-1" stroke="none" stroke-width="1" fill="none" fill-rule="evenodd">
        <g id="noun-sun-4111188" transform="translate(0.923122, 0.198900)" fill="#000000" fill-rule="nonzero">
            <path d="M189.076878,61.6011 C190.561278,61.6011 191.987078,61.01126 193.037778,59.9605 C194.088578,58.9097 194.678378,57.4839 194.678378,55.9996 L194.678378,5.6016 C194.678378,2.5078 192.170578,2.84217094e-14 189.076778,2.84217094e-14 C185.982978,2.84217094e-14 183.475178,2.5078 183.475178,5.6016 L183.475178,55.9996 C183.475178,57.484 184.065018,58.9098 185.115778,59.9605 C186.166578,61.0113 187.592378,61.6011 189.076678,61.6011 L189.076878,61.6011 Z" id="Path"></path>
            <path d="M147.416878,62.3311 C148.092658,64.8467 150.412978,66.5655 153.018478,66.4756 L154.475478,66.4756 L154.471572,66.4756 C155.916872,66.09669 157.151272,65.1553 157.897372,63.8584 C158.643462,62.5654 158.842682,61.0303 158.448152,59.5889 L145.233152,10.6439 C144.428462,7.6439 141.346452,5.8627 138.346452,6.6673 C135.346452,7.47199 133.565252,10.5579 134.369852,13.5579 L147.416878,62.3311 Z" id="Path"></path>
            <path d="M114.376878,77.9011 C115.923778,80.5886 119.357378,81.5183 122.048778,79.9714 C124.740178,78.4245 125.665978,74.9909 124.119078,72.2995 L98.7520779,28.3385 C97.2051779,25.6471 93.7715779,24.7213 91.0801779,26.2682 C88.3887779,27.8151 87.4629779,31.2487 89.0098779,33.9401 L114.376878,77.9011 Z" id="Path"></path>
            <path d="M86.7668779,101.6411 C87.8176779,102.6997 89.2512779,103.2973 90.7434779,103.2973 C92.2356779,103.2973 93.6692779,102.69964 94.7200779,101.6411 C95.7786779,100.5903 96.3762779,99.1567 96.3762779,97.6645 C96.3762779,96.1723 95.7786179,94.7426 94.7200779,93.6879 L58.4310779,57.3989 L58.4310779,57.402806 C56.2357779,55.203606 52.6771779,55.203606 50.4779779,57.402806 C48.2826779,59.598106 48.2826779,63.156706 50.4779779,65.352006 L86.7668779,101.6411 Z" id="Path"></path>
            <path d="M21.4168779,105.6711 L66.2178779,131.6011 C68.9092779,133.148 72.3428779,132.21829 73.8897779,129.5269 C75.4366779,126.8394 74.5069679,123.4019 71.8155779,121.855 L27.0145779,95.925 L27.0184839,95.928906 C24.3270839,94.382006 20.8895839,95.307816 19.3465839,97.999206 C17.7996839,100.690606 18.7254939,104.124206 21.4168839,105.671106 L21.4168779,105.6711 Z" id="Path"></path>
            <path d="M55.8568779,165.9311 C58.4584779,166.020944 60.7787779,164.3022 61.4545779,161.7866 C61.8491079,160.3452 61.6498879,158.8061 60.9037979,157.5132 C60.1577079,156.2202 58.9232979,155.2788 57.4779979,154.8999 L7.07999794,141.2909 C4.07999794,140.48621 0.997997944,142.26746 0.193297944,145.2675 C-0.611392056,148.2675 1.16985794,151.3495 4.16989794,152.1542 L54.6818979,165.7632 C55.0647079,165.853043 55.4592379,165.91164 55.8576979,165.93117 L55.8568779,165.9311 Z" id="Path"></path>
            <path d="M223.856878,66.3011 L225.313878,66.3011 L225.309972,66.3011 C227.915472,66.390944 230.235772,64.6722 230.911572,62.1566 L243.958572,13.3796 L243.958572,13.383507 C244.763262,10.383507 242.982012,7.297607 239.981972,6.492907 C236.981972,5.688217 233.899972,7.469467 233.095272,10.469507 L219.880272,59.414507 C219.485742,60.855907 219.684962,62.391107 220.431052,63.684007 C221.177142,64.980907 222.411552,65.922307 223.856852,66.301207 L223.856878,66.3011 Z" id="Path"></path>
            <path d="M256.276878,79.9711 C257.569878,80.71719 259.104978,80.92032 260.546378,80.5336 C261.983878,80.14298 263.210478,79.1938 263.948678,77.9008 L289.315678,33.9398 C290.862578,31.2484 289.936768,27.8148 287.245378,26.2679 C284.553978,24.721 281.120378,25.64681 279.573478,28.3382 L254.038478,72.2992 C253.304098,73.6117 253.128318,75.1625 253.546288,76.6039 C253.968168,78.0492 254.952488,79.2601 256.276788,79.9711 L256.276878,79.9711 Z" id="Path"></path>
            <path d="M283.436878,101.6411 C284.487678,102.6997 285.921278,103.2973 287.413478,103.2973 C288.905678,103.2973 290.339278,102.69964 291.390078,101.6411 L327.679078,65.3521 C329.874378,63.1568 329.874378,59.5982 327.679078,57.4029 C325.479878,55.2037 321.921278,55.2037 319.725978,57.4029 L283.436978,93.6919 L283.436978,93.687994 C282.378378,94.742694 281.780778,96.172394 281.780778,97.664594 C281.780778,99.156794 282.378438,100.590394 283.436978,101.641194 L283.436878,101.6411 Z" id="Path"></path>
            <path d="M304.216878,129.5311 C304.955158,130.828 306.181678,131.7772 307.619178,132.1639 C309.060578,132.55452 310.595778,132.3514 311.888678,131.60531 L356.689678,105.67531 C359.377178,104.12841 360.306878,100.69481 358.759978,98.00341 C357.213078,95.31201 353.779478,94.38621 351.088078,95.93311 L306.287078,121.86311 L306.287078,121.859204 C304.990178,122.601394 304.044878,123.824004 303.654278,125.265404 C303.267558,126.706804 303.466778,128.242004 304.216778,129.531004 L304.216878,129.5311 Z" id="Path"></path>
            <path d="M378.416878,145.2611 C378.037968,143.8158 377.096578,142.5853 375.799678,141.8353 C374.506678,141.08921 372.971578,140.88999 371.530178,141.28452 L321.132178,154.89352 L321.128272,154.89352 C319.686872,155.27243 318.452472,156.21382 317.706372,157.50682 C316.960282,158.79982 316.761062,160.33882 317.151682,161.78022 C317.827462,164.29582 320.151682,166.01462 322.753282,165.92472 C323.237662,165.979408 323.725942,165.979408 324.210282,165.92472 L374.608282,152.31572 C376.061382,151.90166 377.284082,150.91732 377.998882,149.58912 C378.717632,148.26102 378.866072,146.70242 378.416852,145.26102 L378.416878,145.2611 Z" id="Path"></path>
            <path d="M364.806878,198.8511 C354.052878,200.1402 338.204878,195.7144 325.607878,192.187 C321.685978,191.1245 318.217278,190.1714 315.021878,189.3862 L315.025784,189.390106 C315.025784,144.374106 291.009784,102.777106 252.025784,80.270106 C213.041784,57.762106 165.009784,57.762106 126.025784,80.270106 C87.0417839,102.778106 63.0257839,144.375106 63.0257839,189.390106 C60.1702839,189.948696 57.4241839,190.620606 54.8499839,191.237806 C45.1976839,194.468306 34.8769839,195.144006 24.8889839,193.194806 C21.7951839,192.546366 18.7600839,194.526806 18.1116839,197.620606 C17.4632839,200.714406 19.4436839,203.745606 22.5374839,204.397906 C34.2094839,206.655706 46.2644839,205.944806 57.5924839,202.323706 C66.4674839,199.675306 75.7214839,198.522906 84.9754839,198.909606 C91.8738839,199.108826 98.6554839,200.706506 104.913484,203.612706 C112.706484,207.018906 120.979484,209.190806 129.440484,210.054106 C140.577484,211.237706 151.835484,209.722076 162.256484,205.628306 C171.979184,202.261106 182.045484,199.991606 192.272484,198.851006 C203.971484,198.073666 215.702484,199.753346 226.713484,203.780706 C235.139284,206.331506 243.701484,208.409606 252.361484,209.995506 C255.205284,210.522846 258.091984,210.784566 260.982584,210.780709 C270.380984,210.444726 279.584584,208.015066 287.920584,203.667366 C292.811184,201.038466 298.182584,199.421266 303.713584,198.909566 C310.053384,199.690816 316.299584,201.097066 322.361584,203.108766 C336.025584,206.917366 352.994584,211.675166 365.986584,210.054066 L365.982678,210.054066 C369.076478,209.682976 371.283478,206.874366 370.912378,203.780666 C370.541288,200.686866 367.732678,198.479866 364.638978,198.850966 L364.806878,198.8511 Z M283.548878,193.2495 L283.552784,193.253406 C274.708984,198.230006 264.490784,200.194806 254.431784,198.851106 C246.170084,197.308106 238.001784,195.308106 229.958784,192.858906 C217.595784,188.401906 204.427784,186.608906 191.317784,187.597206 C180.317784,188.776906 169.477784,191.183106 159.008784,194.765206 C150.125984,198.316006 140.528784,199.698806 131.008784,198.796406 C123.571284,198.081566 116.293784,196.190906 109.446784,193.194806 C102.017084,189.847106 94.0127839,187.944806 85.8727839,187.597106 C82.1422839,187.339296 78.4000839,187.339296 74.6737839,187.597106 C76.4276839,147.886106 98.6307839,111.921106 133.345784,92.554106 C168.056784,73.191106 210.325784,73.191106 245.035784,92.554106 C279.750784,111.921106 301.953784,147.886106 303.711784,187.597106 C296.660984,188.093196 289.793784,190.058006 283.551784,193.362706 L283.548878,193.2495 Z" id="Shape"></path>
        </g>
    </g>
</svg>